<svg xmlns="http://www.w3.org/2000/svg" width="40" height="40" viewBox="0 0 40 40">
    <g id="Group_73986" data-name="Group 73986" transform="translate(-15 -50)">
        <circle id="Ellipse_3049" data-name="Ellipse 3049" cx="20" cy="20" r="20" transform="translate(15 50)" fill="#ebebeb"/>
        <g id="Group_72618" data-name="Group 72618" transform="translate(28.376 62.512)">
            <path id="Path_76545" data-name="Path 76545" d="M12.619,10.289l9.428,0a1.165,1.165,0,0,1,1.161,1.072L24.25,24.169a1.165,1.165,0,0,1-1.067,1.256l-.093,0H11.633a1.165,1.165,0,0,1-1.165-1.165l0-.09.985-12.81a1.165,1.165,0,0,1,1.161-1.075Z" transform="translate(-10.469 -10.286)" fill="none" stroke="#5a5959" stroke-linecap="round" stroke-linejoin="round" stroke-width="1" fill-rule="evenodd"/>
            <path id="Path_76546" data-name="Path 76546" d="M22.572,19.429v.924c0,1.583-1.715,1.941-2.715,1.941s-2.715-.566-2.715-2.148v-.716" transform="translate(-12.961 -14.964)" fill="none" stroke="#5a5959" stroke-linecap="round" stroke-linejoin="round" stroke-width="1" fill-rule="evenodd"/>
        </g>
    </g>
</svg>
