<svg xmlns="http://www.w3.org/2000/svg" width="26.683" height="26.683" viewBox="0 0 26.683 26.683">
    <g id="bx-category-alt" transform="translate(0.75 0.75)">
        <path id="Path_77147" data-name="Path 77147" d="M15.793,6H7.4A1.4,1.4,0,0,0,6,7.4v8.394a1.4,1.4,0,0,0,1.4,1.4h8.394a1.4,1.4,0,0,0,1.4-1.4V7.4A1.4,1.4,0,0,0,15.793,6Zm13.99,13.99H21.39a1.4,1.4,0,0,0-1.4,1.4v8.394a1.4,1.4,0,0,0,1.4,1.4h8.394a1.4,1.4,0,0,0,1.4-1.4V21.39A1.4,1.4,0,0,0,29.784,19.99ZM25.587,6a5.6,5.6,0,1,0,5.6,5.6A5.6,5.6,0,0,0,25.587,6ZM11.6,19.99a5.6,5.6,0,1,0,5.6,5.6A5.6,5.6,0,0,0,11.6,19.99Z" transform="translate(-6 -6)" fill="none" stroke="#5a5959" stroke-width="1.5"/>
    </g>
</svg>
