<svg xmlns="http://www.w3.org/2000/svg" width="33.074" height="33" viewBox="0 0 33.074 33">
    <path id="label-heart" d="M30.613,15.335a3.088,3.088,0,0,1,.961,2.256,2.851,2.851,0,0,1-.961,2.181L19.595,30.863a3.218,3.218,0,0,1-2.256.887,2.963,2.963,0,0,1-2.181-.887l-14.2-14.2A3.047,3.047,0,0,1,0,14.447V3.356A2.981,2.981,0,0,1,.925,1.175,3.073,3.073,0,0,1,3.179.25H14.2a3.01,3.01,0,0,1,2.218.887ZM5.509,8.088a2.384,2.384,0,0,0,1.7-.665,2.2,2.2,0,0,0,.7-1.664,2.4,2.4,0,0,0-2.4-2.4,2.2,2.2,0,0,0-1.664.7,2.386,2.386,0,0,0-.665,1.7A2.274,2.274,0,0,0,5.509,8.089Zm18.6,13.088a3.969,3.969,0,0,0,1.109-2.81A3.913,3.913,0,0,0,21.3,14.447a3.971,3.971,0,0,0-2.81,1.109l-1.109,1.183-1.183-1.183a3.808,3.808,0,0,0-2.81-1.109,3.913,3.913,0,0,0-3.918,3.919,3.845,3.845,0,0,0,1.183,2.81l6.729,6.729Z" transform="translate(0.75 0.5)" fill="none" stroke="#707070" stroke-width="1.5"/>
</svg>
