<svg id="store-line" xmlns="http://www.w3.org/2000/svg" width="28.872" height="25.263" viewBox="0 0 28.872 25.263">
    <path id="Path_76550" data-name="Path 76550" d="M27.492,36.941H16.86V29.333H15.088v7.608H9.772V29.333H8v7.608a1.84,1.84,0,0,0,1.772,1.9h17.72a1.84,1.84,0,0,0,1.772-1.9V29.333H27.492Z" transform="translate(-4.196 -13.581)" fill="#5a5959"/>
    <path id="Path_76551" data-name="Path 76551" d="M31.349,14.149l-3.681-7.76a1.8,1.8,0,0,0-1.615-1.056H8.152A1.8,1.8,0,0,0,6.537,6.389l-3.681,7.76a1.987,1.987,0,0,0-.189.856v2.929a1.966,1.966,0,0,0,.415,1.217,4.111,4.111,0,0,0,5.9.5,4.1,4.1,0,0,0,5.413,0,4.1,4.1,0,0,0,5.413,0,4.1,4.1,0,0,0,5.413,0,4.106,4.106,0,0,0,5.892-.495,1.965,1.965,0,0,0,.424-1.217V15.005a1.987,1.987,0,0,0-.189-.856Zm-3.419,4.622A2.383,2.383,0,0,1,25.963,17.7l-.74-1.065L24.492,17.7a2.372,2.372,0,0,1-3.943,0l-.74-1.065L19.078,17.7a2.372,2.372,0,0,1-3.943,0l-.74-1.065L13.665,17.7a2.372,2.372,0,0,1-3.943,0l-.74-1.065L8.243,17.7a2.383,2.383,0,0,1-1.967,1.075,2.328,2.328,0,0,1-1.8-.837V15.005l3.681-7.77h17.9L29.734,15v2.91A2.358,2.358,0,0,1,27.929,18.771Z" transform="translate(-2.667 -5.333)" fill="#5a5959"/>
</svg>
