<svg id="Group_72605" data-name="Group 72605" xmlns="http://www.w3.org/2000/svg" width="22" height="25.144" viewBox="0 0 22 25.144">
    <path id="Path_76537" data-name="Path 76537" d="M14,25.142A3.143,3.143,0,0,0,17.143,22H10.857A3.143,3.143,0,0,0,14,25.142ZM14,3.013l-1.252.253A6.289,6.289,0,0,0,7.714,9.427a34.1,34.1,0,0,1-.721,5.88,20.328,20.328,0,0,1-1.042,3.548h16.1a20.424,20.424,0,0,1-1.042-3.548,34.1,34.1,0,0,1-.721-5.88,6.289,6.289,0,0,0-5.033-6.16L14,3.011Zm9.774,15.843A4,4,0,0,0,25,20.427H3a4,4,0,0,0,1.226-1.571C5.64,16.027,6.143,10.81,6.143,9.427a7.86,7.86,0,0,1,6.294-7.7,1.571,1.571,0,1,1,3.127,0,7.86,7.86,0,0,1,6.294,7.7C21.857,10.81,22.36,16.027,23.774,18.856Z" transform="translate(-3 0.003)" fill="#545454"/>
</svg>
