<svg xmlns="http://www.w3.org/2000/svg" width="26.611" height="26.685" viewBox="0 0 26.611 26.685">
    <g id="account" transform="translate(0.75 0.75)">
        <path id="Path_77152" data-name="Path 77152" d="M12.556,15.217A6.069,6.069,0,0,1,8.1,13.376,6.069,6.069,0,0,1,6.259,8.921,6.069,6.069,0,0,1,8.1,4.466a6.069,6.069,0,0,1,4.455-1.841,6.069,6.069,0,0,1,4.455,1.841,6.069,6.069,0,0,1,1.841,4.455,6.069,6.069,0,0,1-1.841,4.455A6.069,6.069,0,0,1,12.556,15.217Zm0,3.167a22.36,22.36,0,0,1,5.118.663,16.11,16.11,0,0,1,5.118,2.172q2.32,1.51,2.32,3.424V27.81H0V24.643q0-1.915,2.32-3.424a16.11,16.11,0,0,1,5.118-2.172A22.36,22.36,0,0,1,12.556,18.384Z" transform="translate(0 -2.625)" fill="none" stroke="#5a5959" stroke-width="1.5"/>
    </g>
</svg>
